<?xml version="1.0" encoding="UTF-8" standalone="no"?><svg xmlns="http://www.w3.org/2000/svg" xmlns:xlink="http://www.w3.org/1999/xlink" contentScriptType="application/ecmascript" contentStyleType="text/css" height="441px" preserveAspectRatio="none" style="width:588px;height:441px;background:#FFFFFF;" version="1.1" viewBox="0 0 588 441" width="588px" zoomAndPan="magnify"><defs><filter height="300%" id="fdxmy0gbgu6qi" width="300%" x="-1" y="-1"><feGaussianBlur result="blurOut" stdDeviation="2.0"/><feColorMatrix in="blurOut" result="blurOut2" type="matrix" values="0 0 0 0 0 0 0 0 0 0 0 0 0 0 0 0 0 0 .4 0"/><feOffset dx="4.0" dy="4.0" in="blurOut2" result="blurOut3"/><feBlend in="SourceGraphic" in2="blurOut3" mode="normal"/></filter></defs><g><ellipse cx="304" cy="56.5659" fill="#000000" filter="url(#fdxmy0gbgu6qi)" rx="10" ry="10" style="stroke:none;stroke-width:1.0;"/><rect fill="#FEFECE" filter="url(#fdxmy0gbgu6qi)" height="40" rx="12.5" ry="12.5" style="stroke:#A80036;stroke-width:1.5;" width="50" x="384" y="36.5659"/><text fill="#000000" font-family="sans-serif" font-size="14" lengthAdjust="spacing" textLength="39" x="389.5" y="61.4126">nginx</text><rect fill="#FEFECE" filter="url(#fdxmy0gbgu6qi)" height="40" rx="12.5" ry="12.5" style="stroke:#A80036;stroke-width:1.5;" width="61" x="130.5" y="153.5659"/><text fill="#000000" font-family="sans-serif" font-size="14" lengthAdjust="spacing" textLength="51" x="135.5" y="178.4126">postfix</text><ellipse cx="161" cy="56.5659" filter="url(#fdxmy0gbgu6qi)" rx="10" ry="10" style="stroke:#000000;stroke-width:1.0;fill:none;"/><ellipse cx="161.5" cy="57.0659" fill="#000000" rx="6" ry="6" style="stroke:none;stroke-width:1.0;"/><rect fill="#FEFECE" filter="url(#fdxmy0gbgu6qi)" height="40" rx="12.5" ry="12.5" style="stroke:#A80036;stroke-width:1.5;" width="50" x="7" y="153.5659"/><text fill="#000000" font-family="sans-serif" font-size="14" lengthAdjust="spacing" textLength="36" x="14" y="178.4126">dkim</text><rect fill="#FEFECE" filter="url(#fdxmy0gbgu6qi)" height="40" rx="12.5" ry="12.5" style="stroke:#A80036;stroke-width:1.5;" width="69" x="187.5" y="387.5659"/><text fill="#000000" font-family="sans-serif" font-size="14" lengthAdjust="spacing" textLength="59" x="192.5" y="412.4126">dovecot</text><rect fill="#FEFECE" filter="url(#fdxmy0gbgu6qi)" height="40" rx="12.5" ry="12.5" style="stroke:#A80036;stroke-width:1.5;" width="87" x="250.5" y="270.5659"/><text fill="#000000" font-family="sans-serif" font-size="14" lengthAdjust="spacing" textLength="77" x="255.5" y="295.4126">imapproxy</text><rect fill="#FEFECE" filter="url(#fdxmy0gbgu6qi)" height="40" rx="12.5" ry="12.5" style="stroke:#A80036;stroke-width:1.5;" width="93" x="261.5" y="153.5659"/><text fill="#000000" font-family="sans-serif" font-size="14" lengthAdjust="spacing" textLength="83" x="266.5" y="178.4126">squirrelmail</text><rect fill="#FEFECE" filter="url(#fdxmy0gbgu6qi)" height="40" rx="12.5" ry="12.5" style="stroke:#A80036;stroke-width:1.5;" width="53" x="417.5" y="153.5659"/><text fill="#000000" font-family="sans-serif" font-size="14" lengthAdjust="spacing" textLength="43" x="422.5" y="178.4126">baikal</text><rect fill="#FEFECE" filter="url(#fdxmy0gbgu6qi)" height="40" rx="12.5" ry="12.5" style="stroke:#A80036;stroke-width:1.5;" width="68" x="506" y="153.5659"/><text fill="#000000" font-family="sans-serif" font-size="14" lengthAdjust="spacing" textLength="58" x="511" y="178.4126">logshow</text><!--MD5=[27c3991972a4f6bd91780d661cb037fd]
link *start to nginx--><path d="M314.068,56.5659 C328.799,56.5659 356.843,56.5659 378.647,56.5659 " fill="none" id="*start-to-nginx" style="stroke:#A80036;stroke-width:1.0;"/><polygon fill="#A80036" points="383.76,56.5659,374.76,52.5659,378.76,56.5659,374.76,60.5659,383.76,56.5659" style="stroke:#A80036;stroke-width:1.0;"/><text fill="#000000" font-family="sans-serif" font-size="13" lengthAdjust="spacing" textLength="33" x="332.5" y="19.6328">smtp</text><text fill="#000000" font-family="sans-serif" font-size="13" lengthAdjust="spacing" textLength="26" x="336" y="34.7656">http</text><text fill="#000000" font-family="sans-serif" font-size="13" lengthAdjust="spacing" textLength="33" x="332.5" y="49.8984">https</text><!--MD5=[624d6260d8d2c8e9bc70f4a746f5bce3]
link nginx to postfix--><path d="M383.947,63.8919 C344.599,74.0279 270.293,94.0379 246,106.5659 C223.65,118.0919 201.306,135.7419 185.139,149.8899 " fill="none" id="nginx-to-postfix" style="stroke:#A80036;stroke-width:1.0;"/><polygon fill="#A80036" points="181.166,153.4059,190.557,150.4379,184.9107,150.0927,185.2559,144.4464,181.166,153.4059" style="stroke:#A80036;stroke-width:1.0;"/><text fill="#000000" font-family="sans-serif" font-size="13" lengthAdjust="spacing" textLength="96" x="247" y="119.6328">smtp+XCLIENT</text><!--MD5=[9ad78d9e685c8730be3f44dbe281e65c]
reverse link postfix1 to postfix--><path d="M160.129,72.2439 C159.437,85.6169 158.64,105.9159 159,123.5659 C159.201,133.4399 159.631,144.4269 160.041,153.4899 " fill="none" id="postfix1-backto-postfix" style="stroke:#A80036;stroke-width:1.0;"/><polygon fill="#A80036" points="160.416,66.9639,155.9359,75.7348,160.146,71.9566,163.9242,76.1668,160.416,66.9639" style="stroke:#A80036;stroke-width:1.0;"/><text fill="#000000" font-family="sans-serif" font-size="13" lengthAdjust="spacing" textLength="33" x="160" y="119.6328">smtp</text><!--MD5=[c70f6090e57325a8380c85284e334bd4]
reverse link dkim to postfix--><path d="M62.25,173.5659 C82.7805,173.5659 109.832,173.5659 130.43,173.5659 " fill="none" id="dkim-backto-postfix" style="stroke:#A80036;stroke-width:1.0;"/><polygon fill="#A80036" points="57.1787,173.5659,66.1787,177.5659,62.1787,173.5659,66.1787,169.5659,57.1787,173.5659" style="stroke:#A80036;stroke-width:1.0;"/><text fill="#000000" font-family="sans-serif" font-size="13" lengthAdjust="spacing" textLength="37" x="75.25" y="166.6328">milter</text><!--MD5=[69c50acf091c3a2247127594012e5451]
link postfix to dovecot--><path d="M166.096,193.9469 C177.18,236.1019 203.457,336.0426 215.62,382.3004 " fill="none" id="postfix-to-dovecot" style="stroke:#A80036;stroke-width:1.0;"/><polygon fill="#A80036" points="216.961,387.4031,218.54,377.6817,215.6891,382.5676,210.8032,379.7167,216.961,387.4031" style="stroke:#A80036;stroke-width:1.0;"/><text fill="#000000" font-family="sans-serif" font-size="13" lengthAdjust="spacing" textLength="29" x="198" y="295.1328">lmtp</text><!--MD5=[e685cdd6f8d7b9b34b0290cfb30a792b]
link imapproxy to dovecot--><path d="M281.949,310.8139 C269.541,330.633 250.186,361.5473 236.842,382.86 " fill="none" id="imapproxy-to-dovecot" style="stroke:#A80036;stroke-width:1.0;"/><polygon fill="#A80036" points="234.09,387.2547,242.2567,381.7498,236.7436,383.017,235.4764,377.5039,234.09,387.2547" style="stroke:#A80036;stroke-width:1.0;"/><text fill="#000000" font-family="sans-serif" font-size="13" lengthAdjust="spacing" textLength="32" x="264" y="353.6328">imap</text><!--MD5=[191b4724f642aa285e484df8c510527c]
reverse link postfix to squirrelmail--><path d="M197.142,173.5659 C216.489,173.5659 240.541,173.5659 261.292,173.5659 " fill="none" id="postfix-backto-squirrelmail" style="stroke:#A80036;stroke-width:1.0;"/><polygon fill="#A80036" points="191.816,173.5659,200.816,177.5659,196.816,173.5659,200.816,169.5659,191.816,173.5659" style="stroke:#A80036;stroke-width:1.0;"/><text fill="#000000" font-family="sans-serif" font-size="13" lengthAdjust="spacing" textLength="33" x="210" y="166.6328">smtp</text><!--MD5=[4fa123327d84b6175c02fd7f3012f145]
link squirrelmail to imapproxy--><path d="M305.657,193.8139 C303.274,213.3839 299.575,243.7729 296.984,265.0529 " fill="none" id="squirrelmail-to-imapproxy" style="stroke:#A80036;stroke-width:1.0;"/><polygon fill="#A80036" points="296.351,270.2549,301.4095,261.8044,296.9553,265.2916,293.4681,260.8374,296.351,270.2549" style="stroke:#A80036;stroke-width:1.0;"/><text fill="#000000" font-family="sans-serif" font-size="13" lengthAdjust="spacing" textLength="32" x="302" y="236.6328">imap</text><!--MD5=[707e0b4858acf3ca846b6c7536855bc1]
link squirrelmail to baikal--><path d="M354.803,173.5659 C373.744,173.5659 395.121,173.5659 412.199,173.5659 " fill="none" id="squirrelmail-to-baikal" style="stroke:#A80036;stroke-width:1.0;"/><polygon fill="#A80036" points="417.354,173.5659,408.354,169.5659,412.354,173.5659,408.354,177.5659,417.354,173.5659" style="stroke:#A80036;stroke-width:1.0;"/><text fill="#000000" font-family="sans-serif" font-size="13" lengthAdjust="spacing" textLength="26" x="373" y="166.6328">http</text><!--MD5=[3bbcc11b9009efdee03c535b10513634]
link nginx to squirrelmail--><path d="M392.095,76.8139 C374.543,96.7989 347.083,128.0659 328.352,149.3929 " fill="none" id="nginx-to-squirrelmail" style="stroke:#A80036;stroke-width:1.0;"/><polygon fill="#A80036" points="324.96,153.2549,333.9046,149.1326,328.2596,149.4982,327.8939,143.8532,324.96,153.2549" style="stroke:#A80036;stroke-width:1.0;"/><text fill="#000000" font-family="sans-serif" font-size="13" lengthAdjust="spacing" textLength="26" x="365" y="119.6328">http</text><!--MD5=[1fc4b39773a803e6ed30e14c7fdcd0dc]
link nginx to baikal--><path d="M414.858,76.8139 C420.84,96.4669 430.141,127.0309 436.622,148.3229 " fill="none" id="nginx-to-baikal" style="stroke:#A80036;stroke-width:1.0;"/><polygon fill="#A80036" points="438.123,153.2549,439.3291,143.4802,436.6671,148.4716,431.6758,145.8096,438.123,153.2549" style="stroke:#A80036;stroke-width:1.0;"/><text fill="#000000" font-family="sans-serif" font-size="13" lengthAdjust="spacing" textLength="26" x="429" y="119.6328">http</text><!--MD5=[9e8de672bb819e1122547c6c0a683d17]
link nginx to logshow--><path d="M430.926,76.8139 C453.88,96.9649 489.9,128.5849 514.206,149.9219 " fill="none" id="nginx-to-logshow" style="stroke:#A80036;stroke-width:1.0;"/><polygon fill="#A80036" points="518.002,153.2549,513.8777,144.3112,514.2446,149.9561,508.5997,150.323,518.002,153.2549" style="stroke:#A80036;stroke-width:1.0;"/><text fill="#000000" font-family="sans-serif" font-size="13" lengthAdjust="spacing" textLength="26" x="483" y="119.6328">http</text><!--MD5=[929fff699ae650364aa105ecbd6ffb39]
@startuml
hide empty description

[*] -> nginx: smtp\nhttp\nhttps

state postfix
nginx - -> postfix: smtp+XCLIENT
state postfix1 <<end>>
postfix -u-> postfix1: smtp

state dkim
postfix -l-> dkim: milter

state dovecot
postfix - -> dovecot: lmtp

state imapproxy
imapproxy - -> dovecot: imap

state squirrelmail
squirrelmail -l-> postfix: smtp
squirrelmail - -> imapproxy: imap
squirrelmail -> baikal: http
nginx - -> squirrelmail: http

nginx - -> baikal: http
nginx - -> logshow: http
@enduml

PlantUML version 1.2021.11beta6(Unknown compile time)
(GPL source distribution)
Java Runtime: Java(TM) SE Runtime Environment
JVM: Java HotSpot(TM) 64-Bit Server VM
Default Encoding: UTF-8
Language: en
Country: US
--></g></svg>